<svg xmlns="http://www.w3.org/2000/svg" viewBox="0 0 288 216"><defs><style>.cls-1{fill:#a0a0a0;}.cls-2{fill:#c61a1a;}.cls-3{fill:#991010;}</style></defs><g id="Layer_2" data-name="Layer 2"><g id="Layer_1-2" data-name="Layer 1"><polygon class="cls-1" points="288 72 288 144 288 180 279 180 279 198 270 198 270 207 252 207 252 216 144 216 36 216 36 207 18 207 18 198 9 198 9 180 0 180 0 144 0 72 0 63 9 63 9 54 279 54 279 63 288 63 288 72"/><polygon class="cls-2" points="261 18 252 18 252 9 234 9 234 0 54 0 54 9 36 9 36 18 27 18 18 18 18 153 27.33 153 27.33 162 260.67 162 260.67 153 270 153 270 18 261 18"/><polygon class="cls-3" points="18 81 27 81 27 90 45 90 45 99 243 99 243 90 261 90 261 81 270 81 270 171 261 171 261 180 252 180 252 189 234 189 234 198 54 198 54 189 36 189 36 180 27 180 27 171 18 171 18 81"/></g></g></svg>