<svg xmlns="http://www.w3.org/2000/svg" viewBox="0 0 288 189"><defs><style>.cls-1{fill:#a0a0a0;}.cls-2{fill:#991010;}.cls-3{fill:#c61a1a;}</style></defs><g id="Layer_2" data-name="Layer 2"><g id="Layer_1-2" data-name="Layer 1"><polygon class="cls-1" points="288 45 288 117 288 153 279 153 279 171 270 171 270 180 252 180 252 189 144 189 36 189 36 180 18 180 18 171 9 171 9 153 0 153 0 117 0 45 0 36 9 36 9 27 279 27 279 36 288 36 288 45"/><polygon class="cls-2" points="270 81 270 144 261 144 261 153 252 153 252 162 234 162 234 171 54 171 54 162 36 162 36 153 27 153 27 144 18 144 18 81 27 81 27 90 45 90 45 99 243 99 243 90 261 90 261 81 270 81"/><polygon class="cls-3" points="252 18 252 9 234 9 234 0 54 0 54 9 36 9 36 18 18 18 18 45 18 54 18 72 18 99 27 99 27 108 45 108 45 117 243 117 243 108 261 108 261 99 270 99 270 72 270 54 270 45 270 18 252 18"/></g></g></svg>